<?xml version="1.0" encoding="utf-8"?>
<!-- Generator: Adobe Illustrator 26.4.1, SVG Export Plug-In . SVG Version: 6.00 Build 0)  -->
<svg version="1.1" id="Layer_2_00000183251146478231208200000001572956408190963091_"
	 xmlns="http://www.w3.org/2000/svg" xmlns:xlink="http://www.w3.org/1999/xlink" x="0px" y="0px" viewBox="0 0 944.8 583.2"
	 style="enable-background:new 0 0 944.8 583.2;" xml:space="preserve">
<style type="text/css">
	.st0{fill:#1D1D1B;}
	.st1{font-family:'Arial';}
	.st2{font-size:32px;}
	.st3{fill:#00983A;stroke:#3C3C3B;stroke-width:2;stroke-miterlimit:10;}
	.st4{fill:#FFFFFF;stroke:#3C3C3B;stroke-miterlimit:10;}
	.st5{font-size:20px;}
	.st6{letter-spacing:-1;}
	.st7{fill:#FFDE00;stroke:#3C3C3B;stroke-width:2;stroke-miterlimit:10;}
	.st8{fill:#4D63AC;stroke:#3C3C3B;stroke-width:2;stroke-miterlimit:10;}
	.st9{fill:#E52528;stroke:#3C3C3B;stroke-width:2;stroke-miterlimit:10;}
	.st10{fill:#1D1D1B;stroke:#3C3C3B;stroke-width:2;stroke-miterlimit:10;}
	.st11{fill:#EDEDED;stroke:#3C3C3B;stroke-width:2;stroke-miterlimit:10;}
	.st12{fill:#DADADA;stroke:#3C3C3B;stroke-width:2;stroke-miterlimit:10;}
	.st13{fill:#EA5B0C;stroke:#3C3C3B;stroke-width:2;stroke-miterlimit:10;}
	.st14{fill:#E1398D;stroke:#3C3C3B;stroke-width:2;stroke-miterlimit:10;}
	.st15{fill:#F6B4BD;stroke:#3C3C3B;stroke-miterlimit:10;}
	.st16{fill:#FFFFFF;stroke:#3C3C3B;stroke-width:5;stroke-miterlimit:10;}
	.st17{fill:#82368C;stroke:#3C3C3B;stroke-width:2;stroke-miterlimit:10;}
	.st18{fill:#8A5E13;stroke:#3C3C3B;stroke-width:2;stroke-miterlimit:10;}
</style>
<g id="Layer_1-2_00000088122484550350892230000015448348765334826943_">
	<g id="Layer_2-2_00000147202085041182981440000008770800447770624445_">
		<g id="Layer_1-2">
			<g id="Layer_2-2">
				<g id="Layer_1-2-2">
					<g id="Layer_2-2-2">
						<g id="Layer_1-2-2-2">
							<text transform="matrix(1 0 0 1 22.62 378.91)" class="st0 st1 st2">DCS</text>
							<g>
								<text transform="matrix(1 0 0 1 111.3 378.91)" class="st0 st1 st2">DNA Control Strand</text>
							</g>
							<text transform="matrix(1 0 0 1 94.93 378.91)" class="st0 st1 st2">:</text>
							<text transform="matrix(1 0 0 1 47.84 418.16)" class="st0 st1 st2">L</text>
							<text transform="matrix(1 0 0 1 65.64 418.16)" class="st0 st1 st2">A</text>
							<text transform="matrix(1 0 0 1 111.35 417.16)" class="st0 st1 st2">Ligation</text>
							<text transform="matrix(1 0 0 1 223.44 417.16)" class="st0 st1 st2"> </text>
							<text transform="matrix(1 0 0 1 230.57 417.16)" class="st0 st1 st2">Adapter</text>
							<text transform="matrix(1 0 0 1 94.93 417.16)" class="st0 st1 st2">:</text>
							<text transform="matrix(1 0 0 1 609.7 456.42)" class="st0 st1 st2">LIB</text>
							<text transform="matrix(1 0 0 1 682.54 455.4)" class="st0 st1 st2">Library Beads</text>
							<text transform="matrix(1 0 0 1 664.49 455.4)" class="st0 st1 st2">:</text>
							<text transform="matrix(1 0 0 1 616.09 417.15)" class="st0 st1 st2">EB</text>
							<g>
								<text transform="matrix(1 0 0 1 682.54 417.15)" class="st0 st1 st2">Elution Bu</text>
								<text transform="matrix(1 0 0 1 828.42 417.15)" class="st0 st1 st2">f</text>
								<text transform="matrix(1 0 0 1 836.73 417.15)" class="st0 st1 st2">fer</text>
							</g>
							<text transform="matrix(1 0 0 1 664.49 417.15)" class="st0 st1 st2">:</text>
							<text transform="matrix(1 0 0 1 27.93 456.15)" class="st0 st1 st2">LNB</text>
							<g>
								<text transform="matrix(1 0 0 1 111.3 455.59)" class="st0 st1 st2">Ligation Bu</text>
								<text transform="matrix(1 0 0 1 271.43 455.59)" class="st0 st1 st2">f</text>
								<text transform="matrix(1 0 0 1 279.74 455.59)" class="st0 st1 st2">fer</text>
							</g>
							<text transform="matrix(1 0 0 1 94.93 455.59)" class="st0 st1 st2">:</text>
							<path class="st3" d="M191.3,38.3c3.1,23.5-13.4,45-36.9,48.1s-45-13.4-48.1-36.9s13.4-45,36.9-48.1S188.2,14.8,191.3,38.3
								L191.3,38.3z"/>
							<path class="st4" d="M181.1,39.6c2.4,17.8-10.2,34.2-28.1,36.6c-17.9,2.3-34.2-10.2-36.6-28.1s10.2-34.2,28.1-36.6
								C162.3,9.2,178.7,21.8,181.1,39.6L181.1,39.6z"/>
							<text transform="matrix(1 0 0 1 135.12 50.23)" class="st0 st1 st5">L</text>
							<text transform="matrix(1 0 0 1 146.24 50.23)" class="st0 st1 st5 st6">A</text>
							<path class="st7" d="M86.4,38.3c3.1,23.5-13.4,45-36.9,48.1C26,89.5,4.5,73,1.4,49.5s13.4-45,36.9-48.1S83.3,14.8,86.4,38.3z
								"/>
							<path class="st4" d="M76.2,39.6C78.5,57.5,66,73.8,48.1,76.2C30.3,78.5,13.9,66,11.6,48.1c-2.4-17.8,10.2-34.2,28-36.5
								C57.5,9.2,73.9,21.8,76.2,39.6z"/>
							<text transform="matrix(1 0 0 1 22.2 49.23)" class="st0 st1 st5">DCS</text>
							<path class="st8" d="M88.6,259.6c3.1,23.5-13.4,45-36.9,48.1s-45-13.4-48.1-36.9s13.4-45,36.9-48.1S85.5,236.1,88.6,259.6
								L88.6,259.6z"/>
							<path class="st4" d="M78.4,260.9c2.3,17.9-10.2,34.2-28.1,36.6c-17.8,2.4-34.2-10.2-36.6-28.1s10.2-34.2,28-36.6
								C59.7,230.5,76.1,243.1,78.4,260.9z"/>
							<text transform="matrix(1 0 0 1 26.66 270.51)" class="st0 st1 st5">FCF</text>
							<path class="st9" d="M240.6,149c3.1,23.5-13.4,45-36.9,48.1s-45-13.4-48.1-36.9s13.4-45,36.9-48.1l0,0
								C215.9,109,237.5,125.5,240.6,149L240.6,149z"/>
							<path class="st4" d="M230.4,150.3c2.4,17.9-10.2,34.2-28.1,36.6s-34.2-10.2-36.6-28.1s10.2-34.2,28.1-36.6l0,0
								C211.6,119.9,228,132.5,230.4,150.3z"/>
							<text transform="matrix(1 0 0 1 184.7 159.93)" class="st0 st1 st5">SB</text>
							<path class="st10" d="M347.3,149c3.1,23.5-13.4,45-36.9,48.1s-45-13.4-48.1-36.9s13.4-45,36.9-48.1
								C322.7,109,344.2,125.5,347.3,149L347.3,149L347.3,149z"/>
							<path class="st4" d="M337.1,150.3c2.4,17.9-10.2,34.2-28.1,36.6s-34.2-10.2-36.6-28.1s10.2-34.2,28-36.6
								C318.3,119.9,334.7,132.5,337.1,150.3z"/>
							<text transform="matrix(1 0 0 1 291.44 159.92)" class="st0 st1 st5">EB</text>
							<path class="st11" d="M296.1,38.3c3.1,23.5-13.4,45-36.9,48.1c-23.5,3.1-45-13.4-48.1-36.9s13.4-45,36.9-48.1l0,0
								C271.5-1.7,293,14.8,296.1,38.3L296.1,38.3L296.1,38.3z"/>
							<path class="st4" d="M286,39.6c2.4,17.8-10.2,34.2-28.1,36.6C240,78.5,223.7,66,221.3,48.1s10.2-34.2,28.1-36.6
								C267.2,9.2,283.6,21.8,286,39.6z"/>
							<text transform="matrix(1 0 0 1 234.18 49.23)" class="st0 st1 st5">LNB</text>
							<path class="st12" d="M610.8,38.3c3.1,23.5-13.4,45-36.9,48.1c-23.5,3.1-45-13.4-48.1-36.9s13.4-45,36.9-48.1
								C586.1-1.7,607.7,14.8,610.8,38.3L610.8,38.3z"/>
							<path class="st4" d="M600.6,39.6c2.4,17.8-10.2,34.2-28,36.6c-17.8,2.4-34.2-10.2-36.6-28s10.2-34.2,28-36.6l0,0
								C581.9,9.3,598.2,21.9,600.6,39.6L600.6,39.6C600.5,39.7,600.6,39.6,600.6,39.6z"/>
							<text transform="matrix(1 0 0 1 548.82 49.23)" class="st0 st1 st5">SFB</text>
							<path class="st12" d="M715.7,38.3c3.1,23.5-13.4,45-36.9,48.1c-23.5,3.1-45-13.4-48.1-36.9s13.4-45,36.9-48.1
								S712.6,14.8,715.7,38.3L715.7,38.3z"/>
							<path class="st4" d="M705.5,39.6c2.3,17.8-10.2,34.2-28.1,36.6c-17.8,2.3-34.2-10.2-36.6-28.1s10.2-34.2,28-36.6
								C686.7,9.2,703.1,21.8,705.5,39.6z"/>
							<text transform="matrix(1 0 0 1 653.69 49.23)" class="st0 st1 st5">SFB</text>
							<text transform="matrix(1 0 0 1 611.26 492.92)" class="st0 st1 st2">LIS</text>
							<text transform="matrix(1 0 0 1 682.54 493.83)" class="st0 st1 st2">Library Solution</text>
							<text transform="matrix(1 0 0 1 664.49 493.83)" class="st0 st1 st2">:</text>
							<path class="st13" d="M401.1,38.3c3.1,23.5-13.5,45-36.9,48.1s-45-13.4-48.1-36.9s13.4-45,36.8-48.1l0,0
								C376.4-1.7,397.9,14.7,401.1,38.3L401.1,38.3L401.1,38.3z"/>
							<path class="st4" d="M390.8,39.6c2.4,17.8-10.2,34.2-28.1,36.6c-17.9,2.3-34.2-10.2-36.6-28.1s10.2-34.2,28-36.6
								C372.1,9.2,388.4,21.8,390.8,39.6z"/>
							<text transform="matrix(1 0 0 1 340.17 49.23)" class="st0 st1 st5">LFB</text>
							<path class="st13" d="M505.9,38.3c3.1,23.5-13.4,45-36.9,48.1c-23.5,3.1-45-13.4-48.1-36.9s13.4-45,36.9-48.1
								C481.3-1.7,502.8,14.8,505.9,38.3L505.9,38.3L505.9,38.3z"/>
							<path class="st4" d="M495.7,39.6c2.4,17.8-10.2,34.2-28.1,36.6C449.7,78.5,433.4,66,431,48.1s10.2-34.2,28-36.6
								C477,9.2,493.4,21.8,495.7,39.6z"/>
							<text transform="matrix(1 0 0 1 445.05 49.23)" class="st0 st1 st5">LFB</text>
							<path class="st14" d="M451.2,149c3.1,23.5-13.5,45-36.9,48.1c-23.5,3.1-45-13.4-48.1-36.9s13.4-45,36.9-48.1
								C426.6,109,448.1,125.5,451.2,149L451.2,149z"/>
							<path class="st4" d="M441,150.3c2.4,17.9-10.2,34.2-28.1,36.6s-34.2-10.2-36.6-28.1s10.2-34.2,28-36.6
								C422.3,119.9,438.7,132.5,441,150.3z"/>
							<text transform="matrix(1 0 0 1 393.72 159.92)" class="st0 st1 st5">LIB</text>
							<path class="st11" d="M558,149.4c3.1,23.5-13.4,45-36.9,48.1s-45-13.4-48.1-36.9s13.4-45,36.9-48.1l0,0
								C533.3,109.4,554.9,125.9,558,149.4L558,149.4z"/>
							<path class="st15" d="M547.8,150.7c2.3,17.9-10.2,34.2-28.1,36.6c-17.9,2.4-34.2-10.2-36.6-28.1s10.2-34.2,28.1-36.6l0,0
								C529,120.3,545.4,132.9,547.8,150.7z"/>
							<text transform="matrix(1 0 0 1 500.45 160.29)" class="st0 st1 st5">LIS</text>
							<path class="st16" d="M663.2,149c3.1,23.5-13.4,45-36.9,48.1s-45-13.4-48.1-36.9s13.4-45,36.9-48.1S660.1,125.5,663.2,149
								L663.2,149z"/>
							<path class="st16" d="M625,197.1c-23.5,2.5-44.7-14.6-47.2-38.1c-2.4-22.7,13.4-43.3,36-46.9"/>
							<path class="st8" d="M193.5,259.6c3.1,23.5-13.4,45-36.9,48.1s-45-13.4-48.1-36.9s13.4-45,36.9-48.1S190.4,236.1,193.5,259.6
								L193.5,259.6L193.5,259.6z"/>
							<path class="st4" d="M183.3,260.9c2.4,17.9-10.2,34.2-28.1,36.6s-34.2-10.2-36.6-28.1s10.2-34.2,28.1-36.6
								C164.6,230.5,180.9,243.1,183.3,260.9L183.3,260.9z"/>
							<text transform="matrix(1 0 0 1 131.53 270.51)" class="st0 st1 st5">FCF</text>
							<path class="st8" d="M298.4,259.6c3.1,23.5-13.4,45-36.9,48.1s-45-13.4-48.1-36.9s13.4-45,36.9-48.1l0,0
								C273.7,219.6,295.3,236.1,298.4,259.6L298.4,259.6L298.4,259.6L298.4,259.6z"/>
							<path class="st4" d="M288.2,260.9c2.4,17.9-10.2,34.2-28.1,36.6s-34.2-10.2-36.6-28.1s10.2-34.2,28.1-36.6
								C269.5,230.5,285.8,243.1,288.2,260.9z"/>
							<text transform="matrix(1 0 0 1 236.42 270.51)" class="st0 st1 st5">FCF</text>
							<path class="st8" d="M403.2,259.6c3.1,23.5-13.4,45-36.9,48.1s-45-13.4-48.1-36.9s13.4-45,36.9-48.1S400.2,236.1,403.2,259.6
								L403.2,259.6z"/>
							<path class="st4" d="M393,260.9c2.4,17.9-10.2,34.2-28.1,36.6s-34.2-10.2-36.6-28.1s10.2-34.2,28-36.6
								C374.3,230.5,390.7,243.1,393,260.9z"/>
							<text transform="matrix(1 0 0 1 341.29 270.51)" class="st0 st1 st5">FCF</text>
							<path class="st8" d="M508.1,259.6c3.1,23.5-13.4,45-36.9,48.1s-45-13.4-48.1-36.9s13.4-45,36.9-48.1S505,236.1,508.1,259.6
								L508.1,259.6L508.1,259.6z"/>
							<path class="st4" d="M497.9,260.9c2.4,17.9-10.2,34.2-28.1,36.6s-34.2-10.2-36.6-28.1s10.2-34.2,28-36.6
								C479.2,230.5,495.6,243.1,497.9,260.9z"/>
							<text transform="matrix(1 0 0 1 446.17 270.51)" class="st0 st1 st5">FCF</text>
							<path class="st8" d="M613,259.6c3.1,23.5-13.4,45-36.9,48.1s-45-13.4-48.1-36.9s13.4-45,36.9-48.1S609.9,236.1,613,259.6
								L613,259.6L613,259.6z"/>
							<path class="st4" d="M602.8,260.9c2.3,17.8-10.2,34.2-28,36.6s-34.2-10.2-36.6-28c-2.3-17.8,10.2-34.2,28-36.6l0,0
								C584.1,230.5,600.4,243.1,602.8,260.9L602.8,260.9z"/>
							<text transform="matrix(1 0 0 1 551.05 270.51)" class="st0 st1 st5">FCF</text>
							<path class="st17" d="M716.5,259.6c3.1,23.5-13.4,45-36.9,48.1s-45-13.4-48.1-36.9s13.4-45,36.9-48.1
								C691.8,219.6,713.4,236.1,716.5,259.6L716.5,259.6z"/>
							<path class="st4" d="M706.3,260.9c2.3,17.9-10.2,34.2-28.1,36.6c-17.8,2.4-34.2-10.2-36.6-28.1s10.2-34.2,28-36.6
								C687.5,230.5,703.9,243.1,706.3,260.9z"/>
							<text transform="matrix(1 0 0 1 654.69 270.51)" class="st0 st1 st5">FC</text>
							<text transform="matrix(1 0 0 1 681.35 270.51)" class="st0 st1 st5">T</text>
							<text transform="matrix(1 0 0 1 31.5 494.77)" class="st0 st1 st2">LFB</text>
							<text transform="matrix(1 0 0 1 94.93 494.77)" class="st0 st1 st2">:</text>
							<text transform="matrix(1 0 0 1 27.95 534.13)" class="st0 st1 st2">SFB</text>
							<text transform="matrix(1 0 0 1 107.73 536.34)" class="st0 st1 st2">Short Fragment Buffer</text>
							<text transform="matrix(1 0 0 1 93.7 534.13)" class="st0 st1 st2">:</text>
							<text transform="matrix(1 0 0 1 617.37 377.59)" class="st0 st1 st2">SB</text>
							<g>
								<text transform="matrix(1 0 0 1 681.61 378.91)" class="st0 st1 st2">Sequencing Bu</text>
								<text transform="matrix(1 0 0 1 898.67 378.91)" class="st0 st1 st2">f</text>
								<text transform="matrix(1 0 0 1 906.99 378.91)" class="st0 st1 st2">fer</text>
							</g>
							<text transform="matrix(1 0 0 1 662.57 378.91)" class="st0 st1 st2">:</text>
							<text transform="matrix(1 0 0 1 600.88 533.01)" class="st0 st1 st2">FCF</text>
							<text transform="matrix(1 0 0 1 682.54 533)" class="st0 st1 st2">Flow Cell Flush</text>
							<text transform="matrix(1 0 0 1 664.49 533)" class="st0 st1 st2">:</text>
							<text transform="matrix(1 0 0 1 597.77 572.81)" class="st0 st1 st2">FC</text>
							<text transform="matrix(1 0 0 1 640.43 572.81)" class="st0 st1 st2">T</text>
							<text transform="matrix(1 0 0 1 682.54 572.37)" class="st0 st1 st2">Flow Cell Tether</text>
							<text transform="matrix(1 0 0 1 664.49 572.37)" class="st0 st1 st2">:</text>
						</g>
					</g>
					<path class="st18" d="M140.2,149c3.1,23.5-13.4,45-36.9,48.1s-45-13.4-48.1-36.9s13.4-45,36.9-48.1l0,0
						C115.5,109,137.1,125.5,140.2,149z"/>
					<path class="st4" d="M130,150.3c2.4,17.9-10.2,34.2-28.1,36.6s-34.2-10.2-36.6-28.1C63,141,75.5,124.6,93.4,122.3l0,0
						C111.2,119.9,127.6,132.5,130,150.3z"/>
					<g>
						<text transform="matrix(1 0 0 1 78.74 159.92)" class="st0 st1 st5">AX</text>
						<text transform="matrix(1 0 0 1 105.42 159.92)" class="st0 st1 st5 st6">P</text>
					</g>
					<g>
						<text transform="matrix(1 0 0 1 27.37 572.37)" class="st0 st1 st2">AX</text>
						<text transform="matrix(1 0 0 1 70.06 572.37)" class="st0 st1 st2">P</text>
					</g>
					<g>
						<text transform="matrix(1 0 0 1 111.35 572.37)" class="st0 st1 st2">AMPure X</text>
						<text transform="matrix(1 0 0 1 257.18 572.37)" class="st0 st1 st2">P Beads</text>
						<g transform="translate(289.15 572.37)">
							<text transform="matrix(1 0 0 1 277.94 572.37)" class="st0 st1 st2"> Beads</text>
						</g>
					</g>
					<text transform="matrix(1 0 0 1 93.7 572.37)" class="st0 st1 st2">:</text>
				</g>
			</g>
		</g>
	</g>
	<text transform="matrix(1 0 0 1 108.82 496.42)" class="st0 st1 st2">Long Fragment Buffer</text>
</g>
</svg>
