<svg width="3672" height="2157" xmlns="http://www.w3.org/2000/svg" xmlns:xlink="http://www.w3.org/1999/xlink" xml:space="preserve" overflow="hidden"><g transform="translate(-364 -159)"><rect x="2099" y="235" width="745" height="226" fill="#28606F"/><text fill="#FFFFFF" font-family="Aptos,Aptos_MSFontService,sans-serif" font-weight="400" font-size="55" transform="matrix(1 0 0 1 2136.74 333)">Which extraction method do </text><text fill="#FFFFFF" font-family="Aptos,Aptos_MSFontService,sans-serif" font-weight="400" font-size="55" transform="matrix(1 0 0 1 2385.02 399)">I need?</text><rect x="2882" y="789" width="650" height="161" fill="#0084A9"/><text fill="#FFFFFF" font-family="Aptos,Aptos_MSFontService,sans-serif" font-weight="400" font-size="46" transform="matrix(1 0 0 1 3114.04 856)">Universal</text><text fill="#FFFFFF" font-family="Aptos,Aptos_MSFontService,sans-serif" font-weight="400" font-size="46" transform="matrix(1 0 0 1 3084.82 911)">(N50 4</text><text fill="#FFFFFF" font-family="Aptos,Aptos_MSFontService,sans-serif" font-weight="400" font-size="46" transform="matrix(1 0 0 1 3213.15 911)">–</text><text fill="#FFFFFF" font-family="Aptos,Aptos_MSFontService,sans-serif" font-weight="400" font-size="46" transform="matrix(1 0 0 1 3234.35 911)">7 kb)</text><rect x="1399" y="784" width="649" height="156" fill="#0084A9"/><text fill="#FFFFFF" font-family="Aptos,Aptos_MSFontService,sans-serif" font-weight="400" font-size="46" transform="matrix(1 0 0 1 1441.2 849)">Highly Contiguous Assembly</text><text fill="#FFFFFF" font-family="Aptos,Aptos_MSFontService,sans-serif" font-weight="400" font-size="46" transform="matrix(1 0 0 1 1611.66 904)">(N50 &gt;7 kb)</text><path d="M2915 1521.83C2915 1486.58 2943.58 1458 2978.83 1458L3435.17 1458C3470.42 1458 3499 1486.58 3499 1521.83L3499 1777.17C3499 1812.42 3470.42 1841 3435.17 1841L2978.83 1841C2943.58 1841 2915 1812.42 2915 1777.17Z" fill="#BDD9EE" fill-rule="evenodd"/><text fill="#3A3A3A" font-family="Aptos,Aptos_MSFontService,sans-serif" font-weight="400" font-size="48" transform="matrix(1 0 0 1 3043.86 1578)">Universal bead</text><text fill="#3A3A3A" font-family="Aptos,Aptos_MSFontService,sans-serif" font-weight="400" font-size="48" transform="matrix(1 0 0 1 3353.81 1578)">-</text><text fill="#3A3A3A" font-family="Aptos,Aptos_MSFontService,sans-serif" font-weight="400" font-size="48" transform="matrix(1 0 0 1 2982.56 1636)">beating genomic DNA </text><text fill="#3A3A3A" font-family="Aptos,Aptos_MSFontService,sans-serif" font-weight="400" font-size="48" transform="matrix(1 0 0 1 3102.87 1694)">extraction</text><text fill="#3A3A3A" font-family="Aptos,Aptos_MSFontService,sans-serif" font-weight="400" font-size="48" transform="matrix(1 0 0 1 3023.53 1752)">(all sample types)</text><rect x="1400" y="1004" width="650" height="150" fill="#0084A9"/><text fill="#FFFFFF" font-family="Aptos,Aptos_MSFontService,sans-serif" font-weight="400" font-size="46" transform="matrix(1 0 0 1 1580.92 1094)">Organism type</text><rect x="708" y="1261" width="519" height="130" fill="#0084A9"/><text fill="#FFFFFF" font-family="Aptos,Aptos_MSFontService,sans-serif" font-weight="400" font-size="48" transform="matrix(1 0 0 1 880.572 1341)">Bacteria</text><rect x="2220" y="1258" width="520" height="130" fill="#0084A9"/><text fill="#FFFFFF" font-family="Aptos,Aptos_MSFontService,sans-serif" font-weight="400" font-size="48" transform="matrix(1 0 0 1 2423.13 1338)">Fungi</text><rect x="1464" y="1261" width="520" height="130" fill="#0084A9"/><text fill="#FFFFFF" font-family="Aptos,Aptos_MSFontService,sans-serif" font-weight="400" font-size="48" transform="matrix(1 0 0 1 1600.3 1312)">Hard to lyse </text><text fill="#FFFFFF" font-family="Aptos,Aptos_MSFontService,sans-serif" font-style="italic" font-weight="400" font-size="48" transform="matrix(1 0 0 1 1506.04 1370)">(e.g. M. tuberculosis)</text><path d="M0-3.4375 167.627-3.4375 167.627 735.611 164.189 732.174 305.462 732.174 305.462 739.049 160.752 739.049 160.752 0 164.189 3.4375 0 3.4375ZM300.879 721.861 328.379 735.611 300.879 749.361Z" fill="#156082" transform="matrix(1.83697e-16 1 1 -1.83697e-16 2472.5 461.5)"/><path d="M2475.1 461.5 2475.1 626.626 1723.5 626.626 1726.94 623.188 1726.94 761.959 1720.06 761.959 1720.06 619.751 2471.66 619.751 2468.22 623.188 2468.22 461.5ZM1737.25 757.375 1723.5 784.875 1709.75 757.375Z" fill="#156082"/><path d="M0-3.4375 55.4468-3.4375 55.4468 754.842 52.0093 751.404 81.1012 751.404 81.1012 758.279 48.5718 758.279 48.5718 0 52.0093 3.4375 0 3.4375ZM76.5178 741.092 104.018 754.842 76.5178 768.592Z" fill="#156082" transform="matrix(1.83697e-16 1 1 -1.83697e-16 1725.5 1154.5)"/><path d="M1729.29 1154.5 1729.29 1211.34 968.5 1211.34 971.937 1207.9 971.937 1238.38 965.062 1238.38 965.062 1204.46 1725.85 1204.46 1722.41 1207.9 1722.41 1154.5ZM982.25 1233.79 968.5 1261.29 954.75 1233.79Z" fill="#156082"/><path d="M677 1520C677 1484.65 705.654 1456 741.001 1456L1198 1456C1233.35 1456 1262 1484.65 1262 1520L1262 1776C1262 1811.35 1233.35 1840 1198 1840L741.001 1840C705.654 1840 677 1811.35 677 1776Z" fill="#BDD9EE" fill-rule="evenodd"/><text fill="#3A3A3A" font-family="Aptos,Aptos_MSFontService,sans-serif" font-weight="400" font-size="48" transform="matrix(1 0 0 1 781.659 1634)">Bacterial</text><text fill="#3A3A3A" font-family="Aptos,Aptos_MSFontService,sans-serif" font-weight="400" font-size="48" transform="matrix(1 0 0 1 978.17 1634)">genomic </text><text fill="#3A3A3A" font-family="Aptos,Aptos_MSFontService,sans-serif" font-weight="400" font-size="48" transform="matrix(1 0 0 1 812.597 1692)">DNA extraction</text><path d="M2191 1520C2191 1484.65 2219.65 1456 2255 1456L2712 1456C2747.35 1456 2776 1484.65 2776 1520L2776 1776C2776 1811.35 2747.35 1840 2712 1840L2255 1840C2219.65 1840 2191 1811.35 2191 1776Z" fill="#BDD9EE" fill-rule="evenodd"/><text fill="#3A3A3A" font-family="Aptos,Aptos_MSFontService,sans-serif" font-weight="400" font-size="48" transform="matrix(1 0 0 1 2266.14 1634)">Fungal</text><text fill="#3A3A3A" font-family="Aptos,Aptos_MSFontService,sans-serif" font-weight="400" font-size="48" transform="matrix(1 0 0 1 2416.25 1634)">genomic DNA </text><text fill="#3A3A3A" font-family="Aptos,Aptos_MSFontService,sans-serif" font-weight="400" font-size="48" transform="matrix(1 0 0 1 2379.28 1692)">extraction</text><path d="M1434 1520C1434 1484.65 1462.65 1456 1498 1456L1955 1456C1990.35 1456 2019 1484.65 2019 1520L2019 1776C2019 1811.35 1990.35 1840 1955 1840L1498 1840C1462.65 1840 1434 1811.35 1434 1776Z" fill="#BDD9EE" fill-rule="evenodd"/><text fill="#3A3A3A" font-family="Aptos,Aptos_MSFontService,sans-serif" font-weight="400" font-size="50" transform="matrix(1 0 0 1 1590.22 1604)">Hard</text><text fill="#3A3A3A" font-family="Aptos,Aptos_MSFontService,sans-serif" font-weight="400" font-size="50" transform="matrix(1 0 0 1 1697.35 1604)">-</text><text fill="#3A3A3A" font-family="Aptos,Aptos_MSFontService,sans-serif" font-weight="400" font-size="50" transform="matrix(1 0 0 1 1714.54 1604)">to</text><text fill="#3A3A3A" font-family="Aptos,Aptos_MSFontService,sans-serif" font-weight="400" font-size="50" transform="matrix(1 0 0 1 1758.65 1604)">-</text><text fill="#3A3A3A" font-family="Aptos,Aptos_MSFontService,sans-serif" font-weight="400" font-size="50" transform="matrix(1 0 0 1 1775.84 1604)">lyse </text><text fill="#3A3A3A" font-family="Aptos,Aptos_MSFontService,sans-serif" font-weight="400" font-size="50" transform="matrix(1 0 0 1 1512.87 1664)">organisms genomic </text><text fill="#3A3A3A" font-family="Aptos,Aptos_MSFontService,sans-serif" font-weight="400" font-size="50" transform="matrix(1 0 0 1 1562.14 1725)">DNA extraction</text><path d="M1727.93 1391.35 1729.76 1433.68 1722.89 1433.97 1721.07 1391.65ZM1739.87 1428.65 1727.32 1456.72 1712.39 1429.84Z" fill="#156082"/><path d="M2483.93 1388.31 2486.4 1433.43 2479.53 1433.8 2477.07 1388.69ZM2496.45 1428.29 2484.22 1456.5 2468.99 1429.79Z" fill="#156082"/><path d="M1726.94 940.412 1727.99 981.429 1721.12 981.606 1720.06 940.588ZM1738.18 976.583 1725.14 1004.43 1710.69 977.288Z" fill="#156082"/><path d="M971.936 1391.4 973.182 1433.71 966.31 1433.91 965.064 1391.6ZM983.355 1428.83 970.42 1456.72 955.867 1429.64Z" fill="#156082"/><rect x="1070" y="1993" width="585" height="147" fill="#0084A9"/><text fill="#FFFFFF" font-family="Aptos,Aptos_MSFontService,sans-serif" font-weight="400" font-size="41" transform="matrix(1 0 0 1 1143.4 2055)">My organism did not lyse </text><text fill="#FFFFFF" font-family="Aptos,Aptos_MSFontService,sans-serif" font-weight="400" font-size="41" transform="matrix(1 0 0 1 1213.87 2105)">with this method</text><path d="M0-3.4375 74.5557-3.4375 74.5557 204.2 67.6807 204.2 67.6807 0 71.1182 3.4375 0 3.4375ZM84.8682 199.617 71.1182 227.117 57.3682 199.617Z" fill="#156082" transform="matrix(1 0 0 -1 1655.5 2067.62)"/><path d="M3.43726-0.0403412 4.4217 83.8384-2.45283 83.9191-3.43726 0.0403412ZM14.6797 79.1344 1.25338 106.794-12.8184 79.4571Z" fill="#156082" transform="matrix(-1 0 0 1 1725.75 1154.5)"/><path d="M0-2.29167 229.408-2.29167 229.408 77.1343 224.825 77.1343 224.825 0 227.117 2.29167 0 2.29167ZM240.867 72.5509 227.117 100.051 213.367 72.5509Z" fill="#156082" transform="matrix(1.83697e-16 1 1 -1.83697e-16 970.5 1840.5)"/><path d="M3210.94 950.5 3210.94 1435.92 3204.06 1435.92 3204.06 950.5ZM3221.25 1431.34 3207.5 1458.84 3193.75 1431.34Z" fill="#156082"/></g></svg>